<svg xmlns="http://www.w3.org/2000/svg" viewBox="0 0 32 32">
  <rect width="32" height="32" rx="6" fill="#F4F1E8"/>
  <!-- 5x5 calendar grid, cell size 4, gap 1, starting at x=4 y=4 -->
  <!-- Row 1 -->
  <rect x="4"  y="4"  width="4" height="4" rx="0.8" fill="#EDEBD8"/>
  <rect x="9"  y="4"  width="4" height="4" rx="0.8" fill="#D6DDB6"/>
  <rect x="14" y="4"  width="4" height="4" rx="0.8" fill="#B9C98F"/>
  <rect x="19" y="4"  width="4" height="4" rx="0.8" fill="#97B468"/>
  <rect x="24" y="4"  width="4" height="4" rx="0.8" fill="#739A4B"/>
  <!-- Row 2 -->
  <rect x="4"  y="9"  width="4" height="4" rx="0.8" fill="#D6DDB6"/>
  <rect x="9"  y="9"  width="4" height="4" rx="0.8" fill="#B9C98F"/>
  <rect x="14" y="9"  width="4" height="4" rx="0.8" fill="#97B468"/>
  <rect x="19" y="9"  width="4" height="4" rx="0.8" fill="#739A4B"/>
  <rect x="24" y="9"  width="4" height="4" rx="0.8" fill="#4F7A35"/>
  <!-- Row 3 -->
  <rect x="4"  y="14" width="4" height="4" rx="0.8" fill="#B9C98F"/>
  <rect x="9"  y="14" width="4" height="4" rx="0.8" fill="#97B468"/>
  <rect x="14" y="14" width="4" height="4" rx="0.8" fill="#E8553A"/>
  <rect x="19" y="14" width="4" height="4" rx="0.8" fill="#4F7A35"/>
  <rect x="24" y="14" width="4" height="4" rx="0.8" fill="#2E5023"/>
  <!-- Row 4 -->
  <rect x="4"  y="19" width="4" height="4" rx="0.8" fill="#97B468"/>
  <rect x="9"  y="19" width="4" height="4" rx="0.8" fill="#739A4B"/>
  <rect x="14" y="19" width="4" height="4" rx="0.8" fill="#4F7A35"/>
  <rect x="19" y="19" width="4" height="4" rx="0.8" fill="#2E5023"/>
  <rect x="24" y="19" width="4" height="4" rx="0.8" fill="#739A4B"/>
  <!-- Row 5 -->
  <rect x="4"  y="24" width="4" height="4" rx="0.8" fill="#739A4B"/>
  <rect x="9"  y="24" width="4" height="4" rx="0.8" fill="#4F7A35"/>
  <rect x="14" y="24" width="4" height="4" rx="0.8" fill="#2E5023"/>
  <rect x="19" y="24" width="4" height="4" rx="0.8" fill="#4F7A35"/>
  <rect x="24" y="24" width="4" height="4" rx="0.8" fill="#739A4B"/>
</svg>
